<svg xmlns="http://www.w3.org/2000/svg" version="1.1" xmlns:xlink="http://www.w3.org/1999/xlink" xmlns:svgjs="http://svgjs.com/svgjs" width="512" height="512" x="0" y="0" viewBox="0 0 492 492" style="enable-background:new 0 0 512 512" xml:space="preserve" class=""><g><path d="M61.94.98h368.64c33.792 0 61.44 27.648 61.44 61.44v368.64c0 33.792-27.648 61.44-61.44 61.44H61.94C28.148 492.5.5 464.852.5 431.06V62.42C.5 28.628 28.148.98 61.94.98z" style="fill-rule:evenodd;clip-rule:evenodd;" fill="#b92525" data-original="#f4511e" class=""></path><path d="M181.206 127.727c3.979 6.293 6.965 13.982 8.875 22.853 1.714 7.958 6.173 14.909 12.552 19.577 8.969 6.559 18.73 6.622 29.074.206a30.644 30.644 0 0 1-.919-.845c-4.627-4.447-7.68-10.306-9.607-18.434-1.995-8.412-1.865-17.426.401-28.366.809-3.895 1.925-7.589 3.35-11.054-10.519-4.378-20.813-6.732-30.65-7.006l-.106-.002c-14.146-.379-24.578 3.6-30.758 6.929a36.67 36.67 0 0 1 6.118 3.547c4.482 3.201 8.408 7.439 11.67 12.595zM196.415 96.805c10.378.542 21.134 3.139 32.05 7.74a50.774 50.774 0 0 1 7.565-9.794c-4.73-5.614-11.726-12.098-20.873-15.732-.058-.019-.11-.043-.168-.067-11.429-4.483-23.793-3.526-36.852 2.834 5.491 2.412 12.405 6.859 18.278 15.019zM241.995 89.531c3.701-2.794 7.831-5.194 12.314-7.133 1.217-5.177 3.986-13.44 10.025-19.973a93.569 93.569 0 0 0-10.853.494c-8.993.95-20.952 3.71-30.036 11.232 7.94 4.263 14.129 10.157 18.55 15.38z" style="fill-rule:evenodd;clip-rule:evenodd;" fill="#fffffe" data-original="#fffffe"></path><path d="M259.258 88.931c-.062.026-.125.05-.187.072-.497.202-.991.403-1.478.614-5.05 2.17-9.564 4.987-13.418 8.352l-.01.01a2.501 2.501 0 0 1-.233.204c-3.242 2.863-6.01 6.12-8.223 9.699a44.29 44.29 0 0 0-1.97 3.538c-1.954 3.907-3.43 8.23-4.397 12.905-2.021 9.766-2.165 17.686-.449 24.931 1.558 6.581 3.907 11.203 7.385 14.546a22.6 22.6 0 0 0 4.253 3.194c2.743 1.608 5.933 2.767 9.444 3.422 7.459 1.387 14.914.002 20.99-3.895 9.706-6.226 12.336-16.197 7.817-29.635-6.305-18.754-3.149-33.898.61-43.303a58.477 58.477 0 0 1 4.966-9.703 89.264 89.264 0 0 0-3.204.194c-7.966.629-15.305 2.254-21.857 4.841l-.039.014zM332.926 207.913h-17.103c-22.812 0-41.369 18.559-41.369 41.369v15.698c-2.798 3.461-11.765 14.546-19.798 24.557.432-10.409.552-20.594.36-30.41-.002-.024-.002-.051-.002-.074-.595-30.079-4.133-57.552-10.526-81.807a36.176 36.176 0 0 1-5.606-2.155 54.124 54.124 0 0 1-2.69 1.817c5.902 21.547 9.449 45.813 10.584 72.341l-18.046-18.043a3.964 3.964 0 0 0-5.604 5.606l23.988 23.986c.214 12.979-.127 26.606-1.015 40.531-.002.055-.007.108-.01.163-1.217 18.941-3.437 38.604-6.617 58.567a7391.667 7391.667 0 0 0-21.401-26.553v-15.701c0-22.812-18.559-41.369-41.369-41.369h-17.105a3.967 3.967 0 0 0-3.965 3.965v17.102c0 22.81 18.559 41.368 41.369 41.368h15.213c3.946 4.884 16.865 20.854 25.498 31.69-5.786 33.034-12.192 55.205-12.257 55.428a3.96 3.96 0 0 0 2.698 4.913c.37.108.744.161 1.109.161a3.972 3.972 0 0 0 3.804-2.858c.067-.23 6.816-23.573 12.763-58.044.002-.007.002-.014.002-.022 3.938-22.829 6.657-45.355 8.088-66.979 8.616-10.826 22.301-27.756 26.388-32.806h15.208c22.81 0 41.369-18.557 41.369-41.369v-17.102a3.954 3.954 0 0 0-3.958-3.97z" style="fill-rule:evenodd;clip-rule:evenodd;" fill="#fffffe" data-original="#fffffe"></path></g></svg>