<svg xmlns="http://www.w3.org/2000/svg" version="1.1" xmlns:xlink="http://www.w3.org/1999/xlink" xmlns:svgjs="http://svgjs.com/svgjs" width="512" height="512" x="0" y="0" viewBox="0 0 512 512" style="enable-background:new 0 0 512 512" xml:space="preserve"><g><linearGradient id="a" x1="256" x2="256" y1="0" y2="512" gradientUnits="userSpaceOnUse"><stop stop-opacity="1" stop-color="#f4a98d" offset="0"></stop><stop stop-opacity="1" stop-color="#f9b495" offset="1"></stop></linearGradient><path fill="url(#a)" d="M232 432h48c27.57 0 50-22.43 50-50V50c0-27.57-22.43-50-50-50h-48c-27.57 0-50 22.43-50 50v332c0 27.57 22.43 50 50 50zM222 50c0-5.514 4.486-10 10-10h48c5.514 0 10 4.486 10 10v332c0 5.514-4.486 10-10 10h-48c-5.514 0-10-4.486-10-10zM50 432h48c27.57 0 50-22.43 50-50v-82c0-27.57-22.43-50-50-50H50c-27.57 0-50 22.43-50 50v82c0 27.57 22.43 50 50 50zM40 300c0-5.514 4.486-10 10-10h48c5.514 0 10 4.486 10 10v82c0 5.514-4.486 10-10 10H50c-5.514 0-10-4.486-10-10zM0 472h512v40H0zm462-362h-48c-27.57 0-50 22.43-50 50v222c0 27.57 22.43 50 50 50h48c27.57 0 50-22.43 50-50V160c0-27.57-22.43-50-50-50zm10 272c0 5.514-4.486 10-10 10h-48c-5.514 0-10-4.486-10-10V160c0-5.514 4.486-10 10-10h48c5.514 0 10 4.486 10 10z" data-original="url(#a)"></path></g></svg>