<svg id="Layer_1" enable-background="new 0 0 512 512" height="512" viewBox="0 0 512 512" width="512" xmlns="http://www.w3.org/2000/svg"><g id="Layer_2_1_"><g id="Layer_1-2"><g id="In_Love"><path d="m120.6 417.7c-1.1 0-2.1-.4-2.9-1-17.9-13.4-54.7-50.9-82.4-99.3-23.7-41.1-47.7-102.7-27.9-162.4 3.3-10 12-25.2 26.1-37.7 17-15 38.2-22.9 61.4-22.9 7.2 0 14.4.7 21.5 2.1 25.3 4.8 43.8 23.8 58.5 41.8l.2.2c1.3 1.8 2.9 4.2 4.5 6.6 2.5 3.8 7 10.6 9.1 12.6 2.9-.7 10.3-4.3 14.4-6.2 2.8-1.3 5.5-2.6 7.6-3.5l.2-.1c14-5.3 30.7-10.7 48.2-10.7 7.9-.1 15.8 1.2 23.4 3.8 21 7.3 37.4 19.2 48.9 35.1 18.8 26.2 19 56.4 16.2 70.2-8.4 40.6-34.3 77-76.8 108.1-56.2 41.2-125.1 60.5-149.6 63.4z" fill="#0f0f0f"/><path d="m342.8 245.2c-9.2 44.3-39.3 79-74.9 105.2-53.9 39.5-120.6 59.3-147.3 62.4-35.8-26.8-144.2-148.5-108.5-256.3 6.9-20.9 39-67.5 103.5-55.3 24.7 4.7 43 24.7 55.6 40.1 4.6 6.3 12.7 20.2 16.3 21.3 3 1.1 18-7 25.3-10.2 18.7-7 44.5-15.2 68.2-6.9 22.1 7.7 36.9 19.9 46.6 33.3 17.3 24.3 18.1 52.6 15.2 66.4z" fill="#ec263d"/><path d="m342.8 245.2c-9.2 44.3-39.3 79-74.9 105.2-24.5-19.4-44.5-44.1-53.6-74.8-5.8-19.6-6.3-72.4 49.5-97.6 21.3-9.6 45.8-4.2 63.7.8 17.4 24.3 18.2 52.6 15.3 66.4z" fill="#d82540"/><path d="m422.1 406c-42.6-2-174.6-38.2-200.8-130.9-5-17.9-6-69.4 48.8-93.1 7.9-3.3 16.3-4.9 24.9-4.8 13.1 0 25.6 3.2 36.1 6.3l.3.1c1.8.7 4 1.6 6.3 2.5 3.3 1.4 9 3.8 11.7 4.3 2.4-3.4 4.7-7 6.8-10.6 1.3-2.3 2.6-4.4 3.6-6l.1-.2c11.4-16.1 25.8-33.2 47-38.8 7.9-2.1 16-3.2 24.1-3.3 41.6 0 65.1 30.3 71.7 46.4 20.2 49.2 3.7 102.5-13.7 138.6-20.5 42.4-49.1 76-63.4 88.4-.9.8-2 1.2-3.2 1.2z" fill="#0f0f0f"/><path d="m498.1 179.7c-7-17.1-36.7-54.3-90-40.2-20.4 5.4-34.6 23.2-44.3 36.9-3.6 5.6-10.3 18.3-12.8 19-3 .9-15.2-5-21.4-7.2-16-4.8-38.2-10.1-57.6-1.7-50.6 21.9-51 69.5-46 87.3 25.9 91.8 158.7 125.5 196.3 127.3 28.5-24.6 112.1-133.1 75.8-221.4z" fill="#ec263d"/></g></g></g></svg>