<?xml version="1.0" encoding="utf-8"?>
<!-- Generator: Adobe Illustrator 27.3.1, SVG Export Plug-In . SVG Version: 6.00 Build 0)  -->
<svg version="1.1" id="Layer_1" xmlns="http://www.w3.org/2000/svg" xmlns:xlink="http://www.w3.org/1999/xlink" x="0px" y="0px"
	 viewBox="0 0 512 512" style="enable-background:new 0 0 512 512;" xml:space="preserve">
<style type="text/css">
	.st0{fill-rule:evenodd;clip-rule:evenodd;fill:url(#SVGID_1_);}
	.st1{fill:#231F20;}
	.st2{fill:#FFC95C;}
	.st3{fill:#EBA352;}
	.st4{fill:#FFDD67;}
	.st5{fill:#47B892;}
</style>
<linearGradient id="SVGID_1_" gradientUnits="userSpaceOnUse" x1="256.7968" y1="29.857" x2="254.2968" y2="490.961" gradientTransform="matrix(1 0 0 -1 0 514)">
	<stop  offset="0" style="stop-color:#8786C0"/>
	<stop  offset="1" style="stop-color:#F58C80"/>
</linearGradient>
<path class="st0" d="M256,27c-72.4,0.1-134.1,52.6-145.8,124.1l-2,12.5l12.5-1.9c8.9-1.4,17.9-2.1,26.9-2.1
	c81.3,0,152.9,55.8,172.5,134.8l3,12.3l10.8-6.7c43.3-26.9,69.7-74.3,69.7-125.4C403.6,93.3,337.4,27,256,27L256,27z M263.1,245.3
	c14.8,18.4,24.9,40.1,29.4,63.2l1.8,9l-9,1.8c-9.6,2-19.5,2.9-29.3,2.9c-9.9,0-19.7-1-29.3-2.9l-9-1.8l1.7-9
	c4.5-23.1,14.6-44.8,29.3-63.2l7.2-9L263.1,245.3z M226.7,224.9c-53.5,65.4-53.4,159.4,0.1,224.8l6.7,8.2l-9,5.5
	c-23.1,14.2-49.8,21.6-76.9,21.5C66.2,485,0,418.7,0,337.3s66.2-147.7,147.6-147.7c27.1,0,53.6,7.4,76.7,21.6l9.1,5.5L226.7,224.9
	L226.7,224.9z M364.3,485c-72.4-0.1-134.1-52.6-145.8-124.1l-2-12.5l12.5,1.9c8.9,1.4,17.9,2,27,2c81.6-0.1,152.6-55.7,172.4-134.9
	l3-12.3l10.8,6.7c43.5,26.9,69.9,74.4,69.8,125.5C512,418.8,445.7,485,364.3,485z"/>
<g>
	<g>
		<path class="st1" d="M236.3,74.8c-2.8-1.8-4.4-4.2-4.7-7.1c-0.4-2.9,0.5-5.9,2.5-9c0.9-1.4,1.9-2.5,3.1-3.4c1.2-0.9,2.5-1.6,4-2
			c1.4-0.4,2.8-0.5,4.4-0.3c1.5,0.2,3,0.7,4.4,1.6c1.9,1.2,3.1,2.7,3.7,4.4s0.4,3.3-0.6,4.9c-0.4,0.7-1,1.1-1.6,1.4
			c-0.6,0.3-1.3,0.2-2-0.3c-0.8-0.5-1.2-1.1-1.4-1.8c-0.2-0.7-0.1-1.2,0.2-1.7c0.4-0.6,0.9-1.1,1.4-1.7c0.6-0.5,1-0.9,1.2-1.2
			c0-0.6-0.1-1.1-0.5-1.5c-0.4-0.4-0.8-0.8-1.4-1.2c-0.6-0.4-1.3-0.7-2.1-0.8c-0.7-0.1-1.6,0-2.6,0.4c-0.9,0.3-1.9,1-2.9,1.9
			c-1,0.9-2,2.1-3.1,3.7c-1.6,2.4-2.4,4.8-2.3,7c0.1,2.2,1,3.9,2.7,5.1c1.3,0.8,2.5,1.2,3.8,1.2c1.3-0.1,2.7-0.5,4.2-1.2l0.7,1.6
			c-1.9,1-3.8,1.5-5.8,1.4C239.5,76.3,237.8,75.8,236.3,74.8z"/>
		<path class="st1" d="M255,86.3l-9.4-6.2l0.8-1.3c0.3,0.2,0.7,0.4,1,0.5c0.4,0.2,0.7,0.3,0.9,0.4c0.4,0.1,0.9,0.1,1.2-0.1
			c0.4-0.2,0.7-0.5,1-1l14.7-22.4c0.3-0.5,0.5-1,0.6-1.5c0.1-0.5,0-1-0.2-1.5c-0.1-0.3-0.5-0.7-1-1.3c-0.5-0.5-1-0.9-1.4-1.2
			l0.8-1.3l7.6,4.3l0.1,0.5l-17.4,26.5c-0.3,0.5-0.5,0.9-0.5,1.3c0,0.4,0.1,0.8,0.4,1.2c0.2,0.3,0.4,0.6,0.7,0.9
			c0.2,0.2,0.5,0.5,0.9,0.8L255,86.3z"/>
		<path class="st1" d="M266.8,94.1l-9.3-6.1l0.8-1.3c0.3,0.2,0.6,0.3,1,0.5s0.6,0.3,0.9,0.4c0.4,0.1,0.8,0.1,1.2-0.1s0.7-0.5,1-1
			l7.8-11.9c0.3-0.4,0.4-0.9,0.5-1.3c0-0.5,0-0.9-0.2-1.4c-0.1-0.3-0.4-0.7-0.8-1.1c-0.4-0.4-0.8-0.8-1.2-1.1l0.8-1.3l7.1,4l0.1,0.5
			l-10.3,15.8c-0.3,0.5-0.5,0.9-0.5,1.3s0.1,0.8,0.4,1.2c0.2,0.3,0.4,0.6,0.7,0.8c0.2,0.3,0.5,0.5,0.8,0.7L266.8,94.1z M282.1,65.3
			c-0.5,0.7-1.2,1.2-2,1.5c-0.9,0.2-1.6,0.1-2.4-0.4c-0.7-0.4-1.1-1.1-1.2-1.9c-0.1-0.9,0-1.6,0.5-2.3c0.5-0.7,1.1-1.2,2-1.4
			c0.8-0.2,1.6-0.1,2.3,0.3c0.7,0.5,1.2,1.1,1.3,2C282.7,63.9,282.5,64.6,282.1,65.3z"/>
		<path class="st1" d="M277.8,102c-2.8-1.8-4.4-4.2-4.7-7.1c-0.4-2.9,0.5-5.9,2.5-9c0.9-1.4,1.9-2.5,3.1-3.4c1.2-0.9,2.5-1.6,4-2
			c1.4-0.4,2.8-0.5,4.4-0.3s3,0.7,4.4,1.6c1.9,1.2,3.1,2.7,3.7,4.4c0.6,1.7,0.4,3.3-0.6,4.9c-0.4,0.7-1,1.1-1.6,1.4
			c-0.6,0.3-1.3,0.2-2-0.3c-0.8-0.5-1.2-1.1-1.4-1.8c-0.2-0.7-0.1-1.2,0.2-1.7c0.4-0.6,0.9-1.1,1.4-1.7c0.6-0.5,0.9-0.9,1.2-1.2
			c0-0.6-0.1-1.1-0.5-1.5s-0.8-0.8-1.4-1.2c-0.6-0.4-1.3-0.7-2.1-0.8c-0.7-0.1-1.6,0-2.6,0.4c-0.9,0.3-1.9,1-2.9,1.9
			c-1,0.9-2,2.1-3.1,3.7c-1.6,2.4-2.4,4.8-2.3,7c0.1,2.2,1,3.9,2.7,5.1c1.3,0.8,2.5,1.2,3.8,1.2c1.3-0.1,2.7-0.5,4.2-1.2l0.7,1.6
			c-1.9,1-3.8,1.5-5.8,1.4C281,103.5,279.3,103,277.8,102z"/>
		<path class="st1" d="M307.9,121l-5.8-3.8c-0.1-2.1-0.1-4.4-0.2-6.9c-0.1-2.4-0.2-4.9-0.4-7.3l-2.6,0.4l-3,4.6
			c-0.3,0.5-0.5,0.9-0.5,1.3s0.1,0.8,0.4,1.2c0.2,0.3,0.5,0.6,0.7,0.9c0.2,0.3,0.5,0.5,0.9,0.8l-0.8,1.3l-9.5-6.2l0.8-1.3
			c0.3,0.2,0.6,0.3,1,0.5c0.3,0.2,0.7,0.3,0.9,0.4c0.4,0.1,0.8,0.1,1.2-0.1c0.4-0.2,0.7-0.5,1-1l14.7-22.5c0.3-0.5,0.5-1,0.6-1.6
			c0.1-0.6,0-1.1-0.2-1.5c-0.1-0.4-0.5-0.8-1-1.3c-0.5-0.4-1-0.8-1.3-1.1l0.8-1.3l7.4,4.3l0.1,0.5L299.8,102
			c1.7-0.4,3.5-0.7,5.5-1.1s3.6-0.8,5-1.2c0.2,0,0.4-0.1,0.6-0.2c0.2-0.1,0.4-0.2,0.5-0.3c0.2-0.4,0.1-0.8-0.3-1.3s-0.9-1-1.4-1.4
			l0.8-1.3l8.5,5.6l-0.8,1.2c-1.3-0.4-2.6-0.6-3.7-0.7s-2.1,0-2.8,0.1c-0.5,0.1-1.2,0.2-2.2,0.4c-1,0.2-2.3,0.5-3.9,0.7
			c0.2,2,0.4,4.4,0.5,7.1s0.2,4.7,0.3,5.9c0.1,1.1,0.3,2,0.6,2.5c0.3,0.5,0.9,1.1,1.7,1.7L307.9,121z"/>
		<path class="st1" d="M331.1,135c-1.1-0.2-2.1-0.4-3-0.7c-0.9-0.3-1.9-0.7-3-1.5c-1.6-1.1-2.5-2.2-2.6-3.5
			c-0.1-1.2,0.3-2.6,1.3-4.1l8.6-13.1l-3.5-2.3l1.2-1.9l3.6,2.3l3.9-6l3.6,2.3l-3.9,6l5.5,3.6l-1.2,1.9l-5.5-3.6l-7.1,10.8
			c-0.5,0.8-0.9,1.5-1.2,2.1s-0.5,1.1-0.5,1.7c0,0.5,0.1,1,0.4,1.5c0.3,0.5,0.8,0.9,1.5,1.4c0.3,0.2,0.8,0.5,1.5,0.9
			c0.7,0.4,1.2,0.6,1.5,0.7L331.1,135z"/>
		<path class="st1" d="M357.8,139.6c-0.9,1.4-2,2.6-3.3,3.6c-1.3,1-2.6,1.7-4,2.1c-1.6,0.5-3.1,0.5-4.7,0.3c-1.5-0.3-3-0.9-4.5-1.9
			c-1.2-0.8-2.2-1.8-3.1-3c-0.8-1.2-1.4-2.5-1.6-4c-0.3-1.4-0.3-2.9,0.1-4.5c0.3-1.6,1-3.2,2-4.7c2-3,4.5-4.9,7.5-5.7
			c3-0.8,6-0.2,8.8,1.6c2.7,1.8,4.3,4.1,4.9,7.1C360.5,133.5,359.7,136.5,357.8,139.6z M353.7,137c0.6-1,1.2-2.1,1.7-3.3
			c0.5-1.2,0.8-2.3,0.9-3.4c0.1-1.1,0-2.1-0.4-3c-0.4-0.9-1-1.7-2-2.4c-1-0.7-2-1-3.1-0.9c-1,0-2.1,0.3-3.1,0.9
			c-0.9,0.5-1.8,1.2-2.7,2.1s-1.6,1.8-2.2,2.8c-0.8,1.3-1.5,2.5-2,3.7c-0.5,1.2-0.8,2.4-0.9,3.5s0,2.2,0.4,3.1c0.4,0.9,1,1.7,2,2.4
			c1.6,1.1,3.5,1.1,5.4,0.2C349.9,141.6,351.9,139.7,353.7,137z"/>
		<path class="st1" d="M187.8,97.7c0.2,0.8,0.3,1.6,0.2,2.4s-0.5,1.6-1,2.5c-1.2,1.8-2.8,2.8-4.9,3.1s-4.2-0.3-6.3-1.7
			c-1.1-0.7-2-1.6-2.7-2.6c-0.7-1-1.1-1.8-1.3-2.4l-1.2,1l-1.5-1l4.2-6.9l1.4,0.9c-0.2,0.6-0.4,1.3-0.5,2.2c-0.1,0.9-0.1,1.8,0,2.7
			c0.1,0.9,0.4,1.8,0.9,2.7c0.5,0.9,1.1,1.6,2,2.2c1.3,0.8,2.4,1.2,3.5,1c1.1-0.1,1.9-0.7,2.6-1.8c0.4-0.5,0.6-1.1,0.6-1.6
			c0-0.5,0-1.1-0.3-1.7c-0.2-0.6-0.6-1.2-1.1-1.9c-0.5-0.7-1-1.3-1.6-2.1c-0.5-0.6-1-1.3-1.6-2.1s-0.9-1.6-1.2-2.4
			c-0.3-0.8-0.4-1.7-0.3-2.6c0.1-0.9,0.4-1.8,1-2.7c1-1.6,2.5-2.5,4.4-2.9c1.9-0.3,3.8,0.2,5.8,1.4c0.8,0.5,1.5,1.1,2.1,1.8
			c0.7,0.7,1.2,1.4,1.5,2l1.1-0.7l1.4,0.9l-3.8,6.4l-1.4-0.9c0.6-1.6,0.8-3.1,0.4-4.6s-1.2-2.6-2.5-3.5c-1.1-0.7-2.1-1-3.1-0.8
			c-1,0.1-1.7,0.6-2.2,1.4c-0.4,0.6-0.6,1.1-0.7,1.7c-0.1,0.5,0,1.1,0.3,1.6c0.2,0.5,0.6,1.1,1,1.7s1,1.4,1.7,2.2
			c0.7,0.8,1.3,1.7,1.8,2.6C187.3,96.1,187.6,97,187.8,97.7z"/>
		<path class="st1" d="M206.4,116.9c-1.8,1-3.7,1.5-5.7,1.6s-3.8-0.5-5.6-1.7c-1.6-1-2.7-2.2-3.5-3.5s-1.3-2.7-1.4-4.1
			c-0.1-1.4,0-2.9,0.5-4.4c0.4-1.5,1.1-2.9,2-4.3c0.8-1.3,1.8-2.4,3-3.3c1.2-0.9,2.5-1.7,3.9-2.1c1.4-0.4,2.8-0.6,4.2-0.4
			c1.5,0.2,2.9,0.7,4.3,1.6c1.4,0.9,2.5,1.9,3.2,3c0.7,1.1,1.1,2.2,1.3,3.4c0.1,1.1,0,2.3-0.4,3.5c-0.4,1.2-0.9,2.4-1.7,3.5
			l-0.8,1.3l-12.8-8.4c-0.8,1.3-1.5,2.5-1.9,3.7c-0.4,1.2-0.6,2.4-0.6,3.5c0,1.1,0.3,2.1,0.8,3.1c0.5,1,1.4,1.8,2.5,2.6
			c1.2,0.8,2.3,1.1,3.5,1.2c1.2,0,2.7-0.4,4.4-1.3L206.4,116.9z M206.9,106.7c0.5-0.7,0.9-1.6,1.4-2.5c0.4-0.9,0.7-1.7,0.8-2.5
			c0.1-0.8,0-1.6-0.3-2.3c-0.3-0.7-0.8-1.4-1.6-1.9c-1.4-0.9-2.9-1.1-4.5-0.5s-3.2,1.8-4.6,3.8L206.9,106.7z"/>
		<path class="st1" d="M218.1,129.9c-1.1-0.2-2.1-0.4-3-0.7c-0.9-0.3-1.9-0.7-3-1.5c-1.6-1.1-2.5-2.2-2.6-3.5
			c-0.1-1.2,0.3-2.6,1.3-4.1l8.6-13.1l-3.5-2.3l1.2-1.9l3.6,2.3l3.9-6l3.6,2.3l-3.9,6l5.5,3.6l-1.2,1.9l-5.5-3.6l-7.1,10.8
			c-0.5,0.8-0.9,1.5-1.2,2.1c-0.3,0.6-0.5,1.1-0.5,1.7c0,0.5,0.1,1,0.4,1.5c0.3,0.5,0.8,0.9,1.5,1.4c0.3,0.2,0.8,0.5,1.5,0.9
			c0.7,0.4,1.2,0.6,1.5,0.7L218.1,129.9z"/>
		<g>
			<path class="st2" d="M251.6,130.3c-8.4,7.6-14.9,15.1-9.6,18.6c5.5,3.6,10.3-4.9,16.5-14.3c6.1-9.4,11.3-16.6,8.4-18.5
				C263.8,114,259.9,122.8,251.6,130.3z"/>
			<path class="st3" d="M244.2,141.8c6,3.9,8.1,1.1,14.3-8.3c4.8-7.3,9-13.3,9.1-16.6c1,2.9-3.6,9.4-9,17.6c-6.1,9.4-9.3,19-15.3,15
				C241.9,148.8,243.2,141.2,244.2,141.8z"/>
			<path class="st2" d="M271.9,119.3c-2.9-1.9-7.5,5.7-13.6,15.1c-6.1,9.4-12,17.2-6.5,20.8c5.2,3.4,9.5-5.5,13.1-16.3
				C268.5,128.4,275,121.3,271.9,119.3z"/>
			<path class="st3" d="M250.5,154.4c-6-3.9,1.5-10.7,7.7-20.1c5.4-8.2,9.5-15.1,12.6-15.3c-2.9,1.4-6.7,7.7-11.5,15
				c-6.1,9.4-7.9,12.4-1.9,16.4C258.3,151,251.9,155.3,250.5,154.4z"/>
			<path class="st2" d="M238.7,138.6l-0.7,11.4l7.2,0.7l0.3-14.6C245.6,136.1,241.3,139.1,238.7,138.6z"/>
			<path class="st4" d="M247.6,135.8c-1.3,0.6-4.5,5-8.3,4.3l-1.2,9.2c0,0,4.4,1.5,6.6,1.6c5.9,0.2,3.1-6.1,9.3-10.1
				c3.5-2.3,5.9-11.5,2.9-13.4c-3-2-4.4,3.3-5.5,4.2C250.2,132.7,249.2,134.5,247.6,135.8z"/>
			<path class="st3" d="M244.9,150.4c5.9,0.2,2.7-6.3,8.9-10.4c2.8-1.8,4.9-8,4.1-11.5c1.4,3.1-0.6,10.3-3.7,12.4
				c-6.2,4-2.8,10.5-8.9,10.3c-0.5,0-3.5-0.5-7.1-1.1l0.1-1.1C241.8,150.1,244.5,150.3,244.9,150.4z"/>
			<path class="st2" d="M262,146.9l-13.3,6.1l3.6,6.3l10.2-5.2C260.9,152,262,146.9,262,146.9z"/>
			<path class="st4" d="M263.8,139.7c0.4-1.3,4.7-4.7,1.7-6.7c-3-2-10.5,3.9-11.2,8c-1.3,7.3-8.1,7.3-5.6,12.6
				c0.9,1.9,4.1,5.4,4.1,5.4l8-4.8c-2.1-3.2,0.6-7.9,0.6-9.3C262,142.9,263.3,141.3,263.8,139.7z"/>
			<path class="st3" d="M253.2,158.8l-1,0.6c-2-3.1-3.7-5.6-3.9-6c-2.6-5.5,4.7-5,5.9-12.3c0.6-3.7,6.4-8.4,9.9-8.4
				c-3.5,0.7-8.3,5.1-8.9,8.3c-1.3,7.3-8.5,6.9-6,12.3C249.4,153.5,250.7,155.9,253.2,158.8z"/>
			<path class="st5" d="M228.7,138.8l-2.7,4.2l13.9,9.1c3.5-2-0.9-14.6-0.9-14.6L228.7,138.8z"/>
			<path class="st5" d="M263.3,153.5c0,0-13.3,1-13.7,5l13.9,9.1l2.7-4.2L263.3,153.5z"/>
		</g>
		<path class="st1" d="M291.5,177.9c-1.1-0.2-2.1-0.4-3-0.7c-0.9-0.3-1.9-0.7-3-1.5c-1.6-1.1-2.5-2.2-2.6-3.5s0.3-2.6,1.3-4.1
			l8.6-13.1l-3.5-2.3l1.2-1.9l3.6,2.3l3.9-6l3.6,2.3l-3.9,6l5.5,3.6l-1.2,1.9l-5.5-3.6l-7.1,10.8c-0.5,0.8-0.9,1.5-1.2,2.1
			c-0.3,0.6-0.5,1.1-0.5,1.7c0,0.5,0.1,1,0.4,1.5c0.3,0.5,0.8,0.9,1.5,1.4c0.3,0.2,0.8,0.5,1.5,0.9c0.7,0.4,1.2,0.6,1.5,0.7
			L291.5,177.9z"/>
		<path class="st1" d="M302.3,186.2l-9.3-6.1l0.8-1.3c0.3,0.2,0.6,0.3,1,0.5c0.3,0.2,0.6,0.3,0.9,0.4c0.4,0.1,0.8,0.1,1.2-0.1
			c0.4-0.2,0.7-0.5,1-1l7.8-11.9c0.3-0.4,0.4-0.9,0.5-1.3c0-0.5,0-0.9-0.2-1.4c-0.1-0.3-0.4-0.7-0.8-1.1c-0.4-0.4-0.8-0.8-1.2-1.1
			l0.8-1.3l7.1,4l0.1,0.5l-10.3,15.8c-0.3,0.5-0.5,0.9-0.5,1.3c0,0.4,0.1,0.8,0.4,1.2c0.2,0.3,0.4,0.6,0.7,0.8
			c0.2,0.3,0.5,0.5,0.8,0.7L302.3,186.2z M317.6,157.4c-0.5,0.7-1.2,1.2-2,1.5c-0.9,0.2-1.6,0.1-2.4-0.4c-0.7-0.4-1.1-1.1-1.2-1.9
			c-0.1-0.9,0-1.6,0.5-2.3c0.5-0.7,1.1-1.2,2-1.4c0.8-0.2,1.6-0.1,2.3,0.3c0.7,0.5,1.2,1.1,1.3,2C318.2,156,318.1,156.7,317.6,157.4
			z"/>
		<path class="st1" d="M337.7,209.4l-9.4-6.2l0.8-1.3c0.3,0.2,0.6,0.3,1,0.5c0.3,0.2,0.6,0.3,0.9,0.4c0.4,0.1,0.8,0.1,1.2-0.1
			c0.4-0.2,0.7-0.5,1-1l6.5-10c0.9-1.4,1.3-2.6,1.1-3.8c-0.1-1.1-0.7-2-1.6-2.6c-0.6-0.4-1.3-0.7-2-0.9c-0.7-0.2-1.4-0.2-2.1-0.2
			c-0.6,0-1.1,0.1-1.6,0.3c-0.5,0.2-0.8,0.3-1.1,0.5l-7.3,11.2c-0.3,0.5-0.5,0.9-0.5,1.3s0.1,0.8,0.4,1.2c0.2,0.3,0.4,0.6,0.6,0.8
			c0.2,0.2,0.5,0.5,0.9,0.8l-0.8,1.3l-9.2-6l0.8-1.3c0.3,0.2,0.6,0.3,0.9,0.5c0.3,0.2,0.6,0.3,0.9,0.4c0.4,0.1,0.8,0.1,1.2-0.1
			s0.7-0.5,1-1l6.5-10c0.9-1.4,1.3-2.6,1.1-3.8c-0.1-1.1-0.7-2-1.6-2.6c-0.6-0.4-1.3-0.7-2-0.9c-0.7-0.2-1.4-0.2-2.1-0.2
			c-0.6,0-1.1,0.2-1.6,0.3c-0.5,0.2-0.9,0.3-1.1,0.4l-7.3,11.1c-0.3,0.4-0.4,0.9-0.5,1.3s0.1,0.8,0.4,1.2c0.2,0.3,0.4,0.6,0.7,0.8
			c0.2,0.3,0.5,0.5,0.9,0.8l-0.8,1.3l-9.4-6.1l0.8-1.3c0.3,0.2,0.6,0.3,1,0.5c0.3,0.2,0.6,0.3,0.9,0.4c0.4,0.1,0.8,0.1,1.2-0.1
			c0.4-0.2,0.7-0.5,1-1l7.9-12c0.3-0.4,0.4-0.9,0.5-1.3c0-0.5-0.1-0.9-0.2-1.4c-0.1-0.3-0.4-0.6-0.7-1c-0.3-0.3-0.6-0.6-1-0.9
			l0.8-1.3l6.8,3.8l0.1,0.5l-1.8,2.8l0.1,0.1c0.5-0.1,1.2-0.2,2-0.4c0.8-0.1,1.4-0.2,2-0.2c0.7,0,1.4,0.1,2.2,0.3
			c0.8,0.2,1.6,0.6,2.4,1.1c1.3,0.8,2.1,1.9,2.6,3.1c0.5,1.3,0.6,2.5,0.3,3.7c0.8-0.1,1.4-0.3,2-0.4c0.6-0.1,1.3-0.2,2.1-0.2
			c0.7,0,1.5,0.1,2.3,0.3c0.8,0.2,1.6,0.6,2.4,1.2c1.6,1.1,2.6,2.4,2.8,4.1c0.3,1.7-0.4,3.7-1.8,5.9l-6.4,9.8
			c-0.3,0.5-0.5,0.9-0.5,1.3c0,0.4,0.1,0.8,0.4,1.2c0.2,0.3,0.5,0.6,0.7,0.8c0.3,0.3,0.6,0.5,0.9,0.8L337.7,209.4z"/>
		<path class="st1" d="M360.2,217.6c-1.8,1-3.7,1.5-5.7,1.6c-2,0-3.8-0.5-5.6-1.7c-1.6-1-2.7-2.2-3.5-3.5c-0.8-1.3-1.3-2.7-1.4-4.1
			c-0.1-1.4,0-2.9,0.5-4.4c0.4-1.5,1.1-2.9,2-4.3c0.8-1.3,1.8-2.4,3-3.3c1.2-0.9,2.5-1.7,3.9-2.1c1.4-0.4,2.8-0.6,4.2-0.4
			c1.5,0.2,2.9,0.7,4.3,1.6c1.4,0.9,2.5,1.9,3.2,3c0.7,1.1,1.1,2.2,1.3,3.4c0.1,1.1,0,2.3-0.4,3.5c-0.4,1.2-0.9,2.4-1.7,3.5
			l-0.8,1.3l-12.8-8.4c-0.8,1.3-1.5,2.5-1.9,3.7s-0.6,2.4-0.6,3.5c0,1.1,0.3,2.1,0.8,3.1c0.5,1,1.4,1.8,2.5,2.6
			c1.2,0.8,2.3,1.1,3.5,1.2c1.2,0,2.7-0.4,4.4-1.3L360.2,217.6z M360.7,207.4c0.5-0.7,0.9-1.6,1.3-2.5s0.7-1.7,0.8-2.5
			c0.1-0.8,0-1.6-0.3-2.3s-0.8-1.4-1.6-1.9c-1.4-0.9-2.9-1.1-4.5-0.5s-3.2,1.8-4.6,3.8L360.7,207.4z"/>
	</g>
</g>
</svg>
