<svg id="Layer_1" height="512" viewBox="0 0 512 512" width="512" xmlns="http://www.w3.org/2000/svg" xmlns:xlink="http://www.w3.org/1999/xlink" data-name="Layer 1"><linearGradient id="GradientFill_1" gradientUnits="userSpaceOnUse" x1="256.796" x2="254.296" y1="484.143" y2="23.039"><stop offset="0" stop-color="#8786c0"/><stop offset="1" stop-color="#f58c80"/></linearGradient><path d="m256 27.021a147.932 147.932 0 0 0 -145.806 124.12l-2.028 12.509 12.547-1.92a177.26 177.26 0 0 1 26.935-2.051c81.323 0 152.881 55.84 172.457 134.751l3.019 12.34 10.8-6.731a147.706 147.706 0 0 0 69.721-125.359c0-81.42-66.228-147.659-147.645-147.659zm7.123 218.329a145.762 145.762 0 0 1 29.387 63.24l1.793 8.988-9.01 1.821a146.744 146.744 0 0 1 -29.293 2.941 148.3 148.3 0 0 1 -29.34-2.941l-9.01-1.809 1.745-9a146.349 146.349 0 0 1 29.34-63.231l7.17-9.009zm-36.416-20.4a177.5 177.5 0 0 0 .141 224.789l6.7 8.181-9.009 5.519a145.952 145.952 0 0 1 -76.889 21.54c-81.419 0-147.65-66.23-147.65-147.649s66.231-147.67 147.648-147.67a146.906 146.906 0 0 1 76.7 21.559l9.057 5.531-6.7 8.2zm137.6 260.029a147.883 147.883 0 0 1 -145.759-124.11l-2.028-12.48 12.5 1.891a181.08 181.08 0 0 0 26.98 2.04 178 178 0 0 0 172.41-134.851l3.019-12.279 10.755 6.659a147.221 147.221 0 0 1 69.816 125.481c0 81.449-66.276 147.649-147.693 147.649z" fill="url(#GradientFill_1)" fill-rule="evenodd"/></svg>